<?xml version="1.0" standalone="no"?>
<!DOCTYPE svg PUBLIC "-//W3C//DTD SVG 20010904//EN"
 "http://www.w3.org/TR/2001/REC-SVG-20010904/DTD/svg10.dtd">
<svg version="1.0" xmlns="http://www.w3.org/2000/svg"
 width="2560.000000pt" height="1440.000000pt" viewBox="0 0 2560.000000 1440.000000"
 preserveAspectRatio="xMidYMid meet">

<g transform="translate(0.000000,1440.000000) scale(0.100000,-0.100000)"
fill="#000000" stroke="none">
<path d="M0 7200 l0 -7200 12800 0 12800 0 0 7200 0 7200 -12800 0 -12800 0 0
-7200z m9071 2373 c5 -15 11 -43 12 -62 l2 -35 -100 -23 c-98 -24 -99 -24
-115 -4 -15 19 -18 19 -212 -27 -109 -25 -200 -43 -203 -40 -3 3 -6 22 -8 44
l-2 38 285 67 c157 37 295 67 308 68 16 1 26 -7 33 -26z m39 -168 c5 -13 12
-47 16 -74 6 -47 5 -50 -17 -56 -197 -45 -183 -44 -191 -24 -4 11 -13 19 -20
19 -7 0 -98 -20 -203 -44 -198 -46 -205 -46 -205 0 0 18 16 24 163 58 245 56
237 53 237 80 0 20 9 24 88 43 116 27 121 27 132 -2z m51 -217 c6 -24 12 -56
13 -73 1 -29 0 -29 -99 -52 -99 -24 -99 -24 -115 -4 -15 20 -17 19 -205 -24
-104 -25 -195 -45 -201 -45 -11 0 -27 51 -19 59 2 2 88 23 190 46 224 52 219
50 212 75 -4 16 5 21 77 39 125 30 133 29 147 -21z m47 -207 c8 -30 10 -57 5
-62 -7 -7 -597 -149 -618 -149 -5 0 -18 81 -13 85 2 2 84 22 183 45 228 52
215 47 215 74 0 20 10 25 88 43 122 29 124 29 140 -36z m979 -365 c141 -46
244 -129 303 -246 55 -110 60 -149 60 -542 l0 -358 -240 0 -240 0 0 208 c-1
233 -7 277 -46 311 -23 19 -36 22 -71 18 -55 -6 -78 -26 -92 -82 -15 -59 -15
-1114 0 -1183 13 -65 45 -95 98 -95 46 0 65 13 89 57 14 26 17 70 20 294 l3
262 246 0 245 0 -5 -397 c-4 -444 -8 -469 -74 -595 -72 -137 -199 -220 -386
-253 -63 -10 -249 -7 -303 6 -210 50 -364 212 -408 431 -23 113 -24 1571 -1
1703 47 270 187 434 411 480 109 23 289 14 391 -19z m1469 0 c91 -29 203 -102
248 -161 48 -62 86 -149 101 -230 11 -58 15 -159 15 -416 l0 -339 -238 0 -239
0 -6 143 c-4 78 -7 179 -7 225 0 97 -17 148 -55 162 -63 24 -117 4 -139 -52
-14 -33 -16 -117 -16 -621 0 -550 1 -584 19 -624 16 -33 27 -44 56 -52 46 -12
87 1 112 37 16 24 19 58 23 297 l5 270 248 3 247 2 0 -307 c0 -362 -10 -503
-44 -602 -78 -231 -260 -342 -561 -342 -77 0 -141 6 -178 15 -194 52 -339 202
-393 407 -16 57 -18 145 -21 789 -3 468 -1 764 6 835 33 339 171 527 426 580
108 22 289 14 391 -19z m5944 9 c146 -45 247 -129 310 -260 67 -142 65 -103
65 -1020 0 -764 -1 -836 -18 -900 -59 -232 -210 -385 -421 -426 -78 -15 -262
-12 -330 6 -96 25 -191 81 -250 146 -66 74 -97 131 -133 244 l-28 90 0 835 c0
914 -2 880 61 1018 65 142 196 243 359 277 92 19 308 13 385 -10z m-9608 -10
c90 -19 134 -41 186 -93 56 -55 96 -144 119 -257 14 -72 17 -145 18 -370 0
-306 -6 -359 -55 -456 l-29 -57 27 -63 c25 -62 26 -71 30 -314 2 -137 1 -413
-3 -612 l-7 -363 -234 0 -233 0 -3 508 c-2 399 -6 512 -16 530 -17 30 -69 52
-122 52 l-40 0 0 -545 0 -545 -245 0 -245 0 0 1300 0 1300 393 0 c301 0 408
-4 459 -15z m1068 -1285 l0 -1300 -235 0 -235 0 0 1300 0 1300 235 0 235 0 0
-1300z m4270 1058 c12 -134 64 -675 115 -1203 55 -579 88 -962 82 -966 -6 -4
-6 -41 0 -98 l9 -91 -231 0 -231 0 -13 153 c-7 83 -15 169 -18 190 l-6 37
-142 0 -141 0 -12 -172 c-7 -95 -12 -181 -12 -190 0 -17 -18 -18 -238 -18
l-238 0 9 91 c6 57 6 94 0 98 -6 4 36 472 108 1206 64 660 117 1201 118 1203
1 1 185 2 409 2 l409 0 23 -242z m1344 227 c85 -18 141 -50 199 -115 95 -105
121 -238 120 -610 -1 -292 -11 -371 -58 -459 -25 -45 -26 -51 -12 -77 44 -89
45 -111 40 -936 l-3 -388 -240 0 -240 0 0 505 c0 558 1 552 -61 574 -18 6 -49
11 -70 11 l-39 0 0 -545 0 -545 -243 0 -244 0 -6 143 c-9 187 -9 2442 0 2450
3 4 182 7 397 7 303 0 406 -4 460 -15z m1461 -7 c81 -24 147 -63 196 -115 57
-60 82 -101 108 -182 38 -117 43 -236 39 -1036 l-4 -760 -26 -96 c-14 -53 -38
-120 -53 -149 -35 -68 -111 -149 -173 -183 -95 -52 -144 -57 -554 -57 l-378 0
0 1301 0 1300 398 -4 c317 -3 407 -7 447 -19z m-8005 -3450 c4 -57 7 -66 20
-58 30 19 85 11 110 -15 20 -21 24 -38 28 -110 3 -63 8 -85 18 -85 8 0 14 -10
14 -25 0 -24 -2 -25 -70 -25 -68 0 -70 1 -70 25 0 16 6 25 15 25 12 0 15 14
15 69 0 75 -12 95 -52 89 -21 -3 -23 -8 -26 -80 -2 -65 0 -78 13 -78 9 0 15
-9 15 -25 0 -24 -2 -25 -70 -25 -68 0 -70 1 -70 25 0 16 6 25 15 25 13 0 15
22 15 139 0 130 -1 139 -20 144 -19 5 -27 36 -13 51 4 4 30 6 58 4 l50 -3 5
-67z m1808 -100 c2 -140 5 -168 17 -168 9 0 15 -10 15 -25 0 -23 -3 -25 -50
-25 -28 0 -50 5 -50 10 0 6 -13 4 -30 -5 -36 -19 -53 -19 -89 -1 -68 36 -78
180 -16 242 27 27 92 33 113 12 9 -9 12 -3 12 29 0 32 -4 42 -20 46 -19 5 -27
36 -13 51 4 4 30 6 58 4 l50 -3 3 -167z m560 140 c3 -27 1 -28 -37 -28 -39 0
-41 1 -41 31 0 29 2 30 38 27 32 -3 37 -7 40 -30z m5372 -45 c0 -73 1 -75 18
-60 19 17 67 22 97 11 29 -12 45 -60 45 -137 0 -66 2 -75 20 -80 12 -3 20 -14
20 -26 0 -19 -6 -21 -75 -21 -68 0 -75 2 -75 20 0 10 7 23 15 28 13 7 15 24
13 83 -3 69 -5 74 -26 77 -40 6 -52 -14 -52 -89 0 -55 3 -69 15 -69 9 0 15 -9
15 -25 0 -24 -2 -25 -70 -25 -68 0 -70 1 -70 25 0 18 5 25 20 25 19 0 20 7 20
140 0 133 -1 140 -20 140 -16 0 -20 7 -20 30 0 30 1 30 55 30 l55 0 0 -77z
m378 45 c3 -27 1 -28 -37 -28 -39 0 -41 1 -41 31 0 29 2 30 38 27 32 -3 37 -7
40 -30z m2470 0 c3 -27 1 -28 -37 -28 -39 0 -41 1 -41 31 0 29 2 30 38 27 32
-3 37 -7 40 -30z m-9743 -17 c25 -14 31 -24 33 -59 3 -41 2 -42 -27 -42 -23 0
-31 5 -31 18 0 29 -21 42 -67 42 -33 0 -45 -5 -54 -21 -15 -29 -1 -41 86 -76
57 -23 74 -35 89 -64 50 -92 -56 -175 -177 -139 -59 17 -77 36 -77 82 0 36 2
38 30 38 23 0 30 -5 30 -19 0 -24 19 -39 57 -47 59 -12 96 33 56 68 -10 9 -41
23 -70 32 -70 23 -103 55 -103 101 0 44 13 71 43 87 55 29 128 29 182 -1z
m8093 -4 c34 -32 30 -87 -10 -126 l-32 -31 29 -30 c35 -37 43 -37 47 -2 3 23
8 27 33 27 27 0 30 -3 27 -30 -2 -16 -9 -42 -16 -56 -12 -24 -11 -30 11 -58
l24 -31 -45 0 c-25 0 -48 5 -51 10 -4 7 -11 8 -18 1 -22 -17 -85 -23 -121 -11
-77 25 -99 103 -46 160 28 30 29 33 15 60 -22 42 -18 74 10 109 38 45 98 48
143 8z m-9748 -27 c0 -48 -1 -50 -29 -50 -20 0 -30 6 -34 20 -3 14 -14 20 -31
20 l-26 0 0 -125 c0 -104 2 -125 15 -125 9 0 15 -9 15 -25 0 -24 -2 -25 -75
-25 -73 0 -75 1 -75 25 0 18 5 25 20 25 19 0 20 7 20 125 l0 125 -30 0 c-23 0
-30 -4 -30 -20 0 -16 -7 -20 -35 -20 l-35 0 0 50 0 50 165 0 165 0 0 -50z
m4620 0 c0 -49 -1 -50 -30 -50 -23 0 -30 4 -30 20 0 18 -7 20 -55 20 l-55 0 0
-40 0 -39 58 -3 c56 -3 57 -3 60 -35 l3 -33 -60 0 -61 0 0 -45 0 -45 55 0 c48
0 55 2 55 20 0 16 7 20 30 20 29 0 30 -1 30 -50 l0 -50 -145 0 c-140 0 -145 1
-145 21 0 12 8 23 20 26 19 5 20 14 20 130 0 116 -1 125 -20 130 -13 3 -20 14
-20 29 l0 24 145 0 145 0 0 -50z m5651 -75 c23 -68 45 -122 47 -120 3 3 23 58
46 122 l41 118 68 3 c66 3 67 3 67 -23 0 -16 -6 -25 -15 -25 -13 0 -15 -21
-15 -130 0 -109 2 -130 15 -130 9 0 15 -9 15 -25 0 -24 -2 -25 -75 -25 -73 0
-75 1 -75 25 0 18 5 25 20 25 19 0 20 7 20 88 -1 99 -1 99 -56 -56 -28 -80
-30 -83 -58 -80 -27 3 -31 10 -69 116 -22 62 -42 111 -44 108 -2 -2 -1 -42 3
-89 6 -72 10 -86 25 -90 11 -3 19 -14 19 -26 0 -20 -5 -21 -80 -21 -79 0 -80
0 -80 25 0 18 5 25 20 25 19 0 20 7 20 126 0 117 -1 126 -20 131 -13 3 -20 14
-20 29 0 23 3 24 69 24 l69 0 43 -125z m-8391 65 c0 -25 4 -30 25 -30 21 0 25
-5 25 -30 0 -25 -4 -30 -25 -30 -24 0 -25 -3 -25 -59 0 -72 6 -91 31 -91 24 0
38 -48 18 -61 -24 -15 -65 -10 -93 12 -25 19 -26 25 -26 110 0 82 -1 89 -20
89 -16 0 -20 7 -20 30 0 23 4 30 20 30 16 0 20 7 20 30 0 28 3 30 35 30 32 0
35 -2 35 -30z m3310 0 c0 -23 4 -30 20 -30 16 0 20 -7 20 -30 0 -23 -4 -30
-20 -30 -18 0 -20 -7 -20 -74 0 -70 1 -75 23 -78 26 -3 37 -46 15 -59 -25 -17
-69 -9 -93 16 -23 22 -25 32 -25 110 0 78 -2 85 -20 85 -16 0 -20 7 -20 30 0
23 4 30 20 30 16 0 20 7 20 30 0 28 2 30 40 30 38 0 40 -2 40 -30z m-4931 -46
c28 -20 51 -72 51 -114 l0 -30 -80 0 c-64 0 -80 -3 -80 -15 0 -8 11 -22 26
-31 21 -14 31 -15 62 -6 32 10 39 9 50 -5 17 -23 15 -31 -8 -43 -38 -20 -105
-23 -139 -6 -84 44 -97 174 -25 241 32 30 106 34 143 9z m331 1 c26 -13 30
-21 30 -55 0 -39 -1 -40 -34 -40 -28 0 -35 4 -38 23 -3 25 -41 36 -62 18 -36
-30 -27 -126 12 -144 21 -10 27 -8 42 11 25 30 80 31 80 2 0 -53 -87 -92 -154
-70 -90 29 -106 197 -24 254 29 20 110 21 148 1z m1520 -85 c0 -89 2 -100 20
-110 14 -8 26 -8 40 0 17 9 20 21 20 81 0 53 -4 71 -15 75 -8 4 -15 17 -15 30
0 22 4 24 55 24 l55 0 0 -110 c0 -91 3 -110 15 -110 9 0 15 -9 15 -25 0 -23
-3 -25 -50 -25 -27 0 -50 4 -50 10 0 5 -16 2 -34 -7 -27 -12 -43 -14 -68 -7
-46 13 -68 60 -68 147 0 51 -4 69 -15 73 -8 4 -15 17 -15 30 0 22 4 24 55 24
l55 0 0 -100z m740 75 c0 -16 -6 -25 -16 -25 -16 0 -16 -3 11 -80 l12 -34 16
49 c21 60 21 65 1 65 -10 0 -14 7 -12 23 3 20 9 22 71 25 65 3 67 2 67 -21 0
-14 -6 -27 -13 -30 -8 -3 -38 -69 -67 -146 -57 -154 -78 -181 -136 -181 -31 0
-34 3 -34 30 0 23 4 30 20 30 11 0 26 11 35 24 14 22 13 30 -26 130 -23 59
-48 110 -55 113 -8 3 -14 16 -14 29 0 23 3 24 70 24 68 0 70 -1 70 -25z m330
-85 c0 -91 3 -110 15 -110 9 0 15 -9 15 -25 0 -24 -2 -25 -75 -25 -69 0 -75 2
-75 21 0 12 8 23 20 26 18 5 20 14 20 83 0 70 -2 79 -20 85 -13 4 -20 15 -20
31 0 23 3 24 60 24 l60 0 0 -110z m203 98 c3 -10 9 -10 26 0 25 14 75 16 101
2 26 -14 40 -63 40 -141 0 -55 3 -69 15 -69 9 0 15 -9 15 -25 0 -24 -2 -25
-70 -25 -68 0 -70 1 -70 25 0 16 6 25 15 25 12 0 15 14 15 69 0 75 -12 95 -52
89 -21 -3 -23 -8 -26 -77 -2 -59 0 -76 13 -83 8 -5 15 -18 15 -28 0 -18 -7
-20 -70 -20 -68 0 -70 1 -70 25 0 16 6 25 15 25 12 0 15 15 15 79 0 71 -2 80
-20 86 -13 4 -20 15 -20 31 0 22 3 24 54 24 34 0 56 -5 59 -12z m429 -5 c17
-15 18 -15 18 0 0 13 9 17 35 17 l35 0 0 -145 c0 -164 -8 -193 -62 -221 -34
-18 -121 -15 -140 4 -6 6 -8 22 -4 36 6 23 9 24 32 16 36 -14 60 -12 78 6 24
23 21 48 -3 34 -77 -41 -164 53 -145 158 9 48 29 88 51 101 28 16 84 13 105
-6z m998 1 c0 -14 2 -14 22 0 34 24 85 20 113 -9 23 -22 25 -32 25 -108 0 -76
2 -85 20 -90 12 -3 20 -14 20 -26 0 -19 -6 -21 -75 -21 -68 0 -75 2 -75 20 0
10 7 23 15 28 13 7 15 24 13 83 -3 69 -5 74 -26 77 -40 6 -52 -14 -52 -89 0
-55 3 -69 15 -69 9 0 15 -9 15 -25 0 -24 -2 -25 -70 -25 -68 0 -70 1 -70 25 0
16 6 25 15 25 12 0 15 16 15 80 0 62 -3 82 -15 86 -8 4 -15 17 -15 30 0 22 4
24 55 24 43 0 55 -3 55 -16z m616 5 c4 -8 9 -8 17 0 15 15 67 14 67 -1 0 -33
-14 -58 -30 -58 -44 0 -50 -9 -50 -81 0 -55 3 -69 15 -69 9 0 15 -9 15 -25 0
-24 -2 -25 -70 -25 -68 0 -70 1 -70 25 0 16 6 25 15 25 12 0 15 16 15 81 0 72
-2 81 -20 86 -13 3 -20 14 -20 29 0 22 4 24 54 24 30 0 58 -5 62 -11z m333 -3
c33 -18 51 -54 51 -106 l0 -40 -80 0 -80 0 11 -24 c14 -30 45 -39 89 -26 35
10 49 2 50 -28 0 -16 -59 -42 -95 -42 -84 0 -144 77 -130 168 10 65 58 112
114 112 23 0 54 -6 70 -14z m241 4 c0 -7 6 -7 19 0 75 40 151 -26 151 -132 0
-103 -69 -159 -152 -123 -15 6 -18 2 -18 -23 0 -22 6 -31 21 -35 15 -4 20 -12
17 -29 -3 -22 -7 -23 -73 -23 -65 0 -70 2 -73 23 -2 13 3 25 12 28 23 9 24
262 1 270 -8 4 -15 17 -15 30 0 22 4 24 55 24 31 0 55 -4 55 -10z m360 0 c0
-7 6 -7 19 0 11 5 29 10 41 10 18 0 21 -5 18 -32 -2 -27 -8 -34 -28 -36 -42
-6 -50 -20 -50 -87 0 -54 3 -63 20 -68 12 -3 20 -14 20 -26 0 -19 -6 -21 -75
-21 -73 0 -75 1 -75 25 0 16 6 25 15 25 12 0 15 16 15 80 0 62 -3 82 -15 86
-8 4 -15 17 -15 30 0 22 4 24 55 24 31 0 55 -4 55 -10z m339 -6 c28 -20 51
-72 51 -114 l0 -30 -80 0 c-64 0 -80 -3 -80 -15 0 -8 11 -22 26 -31 21 -14 31
-15 62 -6 32 10 39 9 50 -5 17 -23 15 -31 -8 -43 -38 -20 -105 -23 -139 -6
-84 44 -97 174 -25 241 32 30 106 34 143 9z m231 0 c0 -14 2 -14 22 0 34 24
85 20 113 -9 23 -22 25 -32 25 -108 0 -76 2 -85 20 -90 12 -3 20 -14 20 -26 0
-19 -6 -21 -75 -21 -68 0 -75 2 -75 20 0 10 7 23 15 28 13 7 15 24 13 83 -3
69 -5 74 -26 77 -40 6 -52 -14 -52 -89 0 -55 3 -69 15 -69 9 0 15 -9 15 -25 0
-24 -2 -25 -70 -25 -68 0 -70 1 -70 25 0 16 6 25 15 25 12 0 15 16 15 80 0 62
-3 82 -15 86 -8 4 -15 17 -15 30 0 22 4 24 55 24 43 0 55 -3 55 -16z m465 -7
c26 -22 52 -107 39 -128 -3 -5 -39 -9 -80 -9 -82 0 -97 -14 -48 -46 21 -14 31
-15 62 -6 32 10 39 9 50 -5 18 -25 10 -36 -34 -51 -61 -21 -113 -10 -151 32
-29 31 -33 43 -33 91 0 97 40 145 122 145 34 0 54 -6 73 -23z m215 -71 c0 -74
4 -98 16 -111 9 -9 23 -14 31 -11 8 3 19 6 24 6 5 0 9 34 9 75 0 58 -4 77 -15
81 -8 4 -15 17 -15 30 0 22 4 24 55 24 l55 0 0 -110 c0 -91 3 -110 15 -110 9
0 15 -9 15 -25 0 -23 -3 -25 -50 -25 -27 0 -50 4 -50 9 0 6 -12 3 -27 -5 -36
-18 -57 -18 -93 1 -35 18 -50 63 -50 148 0 42 -4 59 -15 63 -15 6 -20 35 -8
47 3 4 28 7 55 7 l48 0 0 -94z m380 84 c0 -7 6 -7 19 0 11 5 29 10 41 10 18 0
21 -5 18 -32 -2 -27 -8 -34 -28 -36 -42 -6 -50 -20 -50 -87 0 -54 3 -63 20
-68 12 -3 20 -14 20 -26 0 -19 -6 -21 -75 -21 -73 0 -75 1 -75 25 0 16 6 25
15 25 12 0 15 16 15 80 0 62 -3 82 -15 86 -8 4 -15 17 -15 30 0 22 4 24 55 24
31 0 55 -4 55 -10z m340 -3 c19 -9 26 -22 28 -50 3 -34 1 -37 -23 -37 -19 0
-29 6 -32 20 -7 25 -48 37 -68 20 -25 -20 -12 -34 51 -55 40 -14 63 -28 73
-46 43 -78 -60 -144 -164 -104 -41 15 -45 20 -45 51 0 31 3 34 29 34 21 0 30
-6 34 -21 8 -28 72 -24 72 5 0 14 -12 22 -43 31 -70 21 -92 40 -92 81 0 55 36
84 102 84 29 0 64 -6 78 -13z m598 -99 c2 -87 6 -108 17 -108 9 0 15 -10 15
-25 0 -24 -2 -25 -75 -25 -69 0 -75 2 -75 21 0 12 8 23 20 26 18 5 20 14 20
83 0 70 -2 79 -20 85 -13 4 -20 15 -20 31 0 24 2 25 58 22 l57 -3 3 -107z
m205 100 c4 -10 7 -10 18 0 16 15 73 16 100 2 23 -13 44 -53 52 -100 19 -107
-66 -201 -144 -160 -17 10 -19 7 -19 -20 0 -20 5 -30 15 -30 10 0 15 -10 15
-30 l0 -30 -70 0 -70 0 0 30 c0 20 5 30 15 30 13 0 15 21 15 129 0 121 -1 130
-20 136 -13 4 -20 15 -20 31 0 22 3 24 54 24 34 0 56 -5 59 -12z m1577 -55 c0
-133 14 -163 65 -143 23 9 25 14 25 79 0 62 -2 70 -21 76 -14 5 -19 14 -17 28
3 19 10 22 56 25 l52 3 0 -109 c0 -101 2 -110 20 -115 12 -3 20 -14 20 -26 0
-19 -6 -21 -55 -21 -32 0 -55 4 -55 11 0 5 -10 3 -22 -5 -35 -25 -76 -20 -109
13 -27 28 -29 34 -29 109 0 62 -3 81 -15 86 -8 3 -15 17 -15 31 0 23 3 25 50
25 l50 0 0 -67z m459 56 c28 -10 31 -15 31 -50 0 -35 -3 -39 -24 -39 -16 0
-27 7 -31 20 -9 28 -52 37 -73 16 -16 -16 -16 -18 2 -32 11 -8 30 -14 41 -14
12 0 37 -10 56 -23 29 -19 34 -29 34 -61 0 -54 -37 -81 -109 -81 -67 0 -106
24 -106 65 0 26 3 30 29 30 21 0 32 -6 36 -20 8 -24 70 -29 78 -6 8 19 -9 32
-61 46 -53 14 -82 41 -82 78 0 68 87 103 179 71z m231 -99 c0 -91 3 -110 15
-110 9 0 15 -9 15 -25 0 -24 -2 -25 -75 -25 -69 0 -75 2 -75 21 0 12 8 23 20
26 18 5 20 14 20 83 0 70 -2 79 -20 85 -13 4 -20 15 -20 31 0 23 3 24 60 24
l60 0 0 -110z m308 93 c12 -11 22 -33 24 -53 3 -33 1 -35 -29 -38 -28 -3 -33
1 -39 22 -5 20 -12 26 -35 26 -34 0 -49 -23 -49 -77 0 -42 23 -83 46 -83 8 0
22 9 31 20 21 24 83 28 83 5 0 -8 -13 -29 -28 -46 -56 -63 -165 -43 -198 36
-27 66 -11 143 41 183 36 28 123 31 153 5z m-10548 -229 c0 -38 -36 -114 -54
-114 -28 1 -36 16 -26 50 6 19 10 50 10 67 0 31 2 33 35 33 34 0 35 -2 35 -36z
m2917 -10 c-4 -43 -31 -94 -53 -101 -5 -1 -14 1 -21 5 -9 6 -9 23 0 75 l11 67
34 0 35 0 -6 -46z"/>
<path d="M17315 7977 c-26 -26 -34 -44 -40 -88 -3 -29 -5 -301 -3 -604 3 -533
4 -551 23 -585 25 -42 74 -62 120 -49 74 21 76 45 73 715 -3 611 -3 609 -55
633 -45 20 -83 13 -118 -22z"/>
<path d="M7630 7860 l0 -120 74 0 c69 0 76 2 95 26 45 57 49 150 10 193 -17
18 -32 21 -99 21 l-80 0 0 -120z"/>
<path d="M12880 8011 c0 -4 -16 -221 -35 -481 -19 -260 -35 -486 -35 -501 l0
-29 89 0 89 0 -4 38 c-5 39 -84 959 -84 974 0 4 -4 8 -10 8 -5 0 -10 -4 -10
-9z"/>
<path d="M14310 7860 l0 -120 66 0 c36 0 74 5 86 11 48 26 65 154 27 203 -19
24 -26 26 -100 26 l-79 0 0 -120z"/>
<path d="M15780 7330 l0 -680 63 0 c79 0 121 24 137 77 17 59 10 1200 -8 1231
-19 32 -71 52 -137 52 l-55 0 0 -680z"/>
<path d="M9786 5028 c-42 -60 0 -157 55 -128 15 9 19 22 19 68 0 32 -5 63 -12
70 -19 19 -45 14 -62 -10z"/>
<path d="M16976 5125 c-3 -9 -1 -25 4 -36 15 -27 53 -7 48 24 -4 27 -43 36
-52 12z"/>
<path d="M16956 4964 c-18 -47 11 -80 58 -68 l25 6 -31 39 c-35 43 -43 47 -52
23z"/>
<path d="M7480 5031 c-15 -29 -13 -31 30 -31 41 0 52 14 28 38 -18 18 -46 14
-58 -7z"/>
<path d="M11072 5038 c-47 -59 -9 -168 48 -138 17 9 20 21 20 74 0 49 -4 65
-16 70 -24 9 -41 7 -52 -6z"/>
<path d="M12986 5035 c-11 -30 -6 -35 34 -35 37 0 39 2 31 23 -10 27 -55 36
-65 12z"/>
<path d="M13332 5038 c-7 -7 -12 -38 -12 -70 0 -46 4 -59 19 -68 27 -14 37
-13 55 6 18 18 22 95 6 125 -12 21 -50 25 -68 7z"/>
<path d="M13920 5031 c-15 -29 -13 -31 30 -31 41 0 52 14 28 38 -18 18 -46 14
-58 -7z"/>
<path d="M14612 5038 c-24 -24 -13 -38 28 -38 26 0 40 5 40 13 0 18 -21 37
-40 37 -9 0 -21 -5 -28 -12z"/>
<path d="M16473 5043 c-9 -3 -13 -27 -13 -68 0 -54 3 -66 20 -75 57 -30 95 79
48 138 -11 12 -33 15 -55 5z"/>
</g>
</svg>
